<?xml version="1.0" encoding="utf-8"?>
<svg version="1.1" id="Layer_1" xmlns="http://www.w3.org/2000/svg" xmlns:xlink="http://www.w3.org/1999/xlink" x="0px" y="0px"
	 viewBox="0 0 1440 1100" style="enable-background:new 0 0 1440 1100;" xml:space="preserve">
<style type="text/css">
	.st0{fill:#000;}
</style>
<path class="st0" d="M1440,1087.6l-356.2-212L957.6,574.5L671.5,404.2l14,121.4L127.8,193.7l-14-121.5l558.4,332l-14-121.2
	l285.1,169.5l126.1,300.7L1440,973.6V838.1l-387.6-230.4L926.3,307L640.4,136.9l14,121.2L220.2,0H102.8l5.5,47.4L29.1,0H0v118.4
	l125.1,74.9L139,312.7L0,229.9v180.7L167,510l-13.9-120.4l555.8,330.8l-14-121.4l285.2,169.7l126.1,301.1l50.7,30.2H1440V1087.6z"/>
<path class="st0" d="M1440,454.9l-437.7-260.5L920.9,0H409.7l229.1,136.3L624.8,15L910,184.7l126.2,301.1L1440,726.1V454.9z
	 M740.3,1100L197.8,776.7l-14-120.5L741,987.5l13,112.5h176.1L742.2,988l-14-121l285.1,169.5l26.6,63.5h44.1l-87.7-209L710.4,720.9
	l14,121.2L164,509l14.2,121.6L0,524.4V660l195.1,116.3l14,121.5L0,773v226.2L168.9,1100h67.2l-9.2-79.9l134,79.9H740.3z"/>
<path class="st0" d="M958.2,0l30.5,72.8L1440,341.7V160.8L1170.2,0H958.2z M1440,0h-82l82,48.7V0z"/>
</svg>
